<?xml version="1.0" standalone="no"?>
<!DOCTYPE svg PUBLIC "-//W3C//DTD SVG 20010904//EN"
 "http://www.w3.org/TR/2001/REC-SVG-20010904/DTD/svg10.dtd">
<svg version="1.0" xmlns="http://www.w3.org/2000/svg"
 width="200.000000pt" height="122.000000pt" viewBox="0 0 200.000000 122.000000"
 preserveAspectRatio="xMidYMid meet">

<g transform="translate(0.000000,122.000000) scale(0.100000,-0.100000)"
fill="#000000" stroke="none">
<path d="M0 610 l0 -610 131 0 130 0 -3 482 c-3 444 -5 487 -23 533 -24 63
-95 134 -174 174 l-61 31 0 -610z"/>
<path d="M1572 733 l3 -488 24 -53 c27 -60 98 -129 166 -161 24 -11 47 -21 50
-21 2 0 6 154 7 343 l3 342 88 3 87 3 0 129 0 130 -90 0 -90 0 0 130 0 130
-125 0 -126 0 3 -487z"/>
<path d="M520 605 l0 -605 131 0 130 0 -3 488 -3 487 -28 57 c-15 31 -45 72
-67 92 -38 34 -128 86 -150 86 -7 0 -10 -195 -10 -605z"/>
<path d="M1048 1200 c-1 -5 -2 -278 0 -605 l2 -595 126 0 125 0 -3 487 -3 488
-24 53 c-27 60 -98 129 -166 161 -52 24 -52 24 -57 11z"/>
</g>
</svg>
